<svg version="1.1" id="Layer_1" xmlns="http://www.w3.org/2000/svg" xmlns:xlink="http://www.w3.org/1999/xlink" x="0px" y="0px"
	 width="100%" viewBox="0 0 500 500" enable-background="new 0 0 500 500" xml:space="preserve">
<path fill="#000000" opacity="1.000000" stroke="none" 
	d="
M448.000000,501.000000 
	C298.666687,501.000000 149.833405,501.000000 1.000080,501.000000 
	C1.000053,334.333405 1.000053,167.666824 1.000027,1.000169 
	C167.666550,1.000113 334.333099,1.000113 500.999756,1.000057 
	C500.999817,167.666519 500.999817,334.333038 500.999908,500.999756 
	C483.500000,501.000000 466.000000,501.000000 448.000000,501.000000 
M220.405075,113.977867 
	C220.723083,114.092880 221.041077,114.207893 221.614014,113.998230 
	C221.298294,113.882126 220.982574,113.766022 220.405075,113.977867 
M161.208450,324.111176 
	C161.094467,324.077454 160.980499,324.043762 160.802628,324.073364 
	C160.802628,324.073364 161.017487,324.131287 161.208450,324.111176 
M174.489197,311.938599 
	C174.659470,312.010406 174.829742,312.082214 175.122162,312.011871 
	C175.122162,312.011871 174.996429,311.727234 174.996429,311.727234 
	C174.996429,311.727234 174.737625,311.935699 174.489197,311.938599 
M167.885452,300.427185 
	C168.077164,300.385223 168.268875,300.343262 168.460587,300.301300 
	C168.347000,300.188049 168.233414,300.074799 167.973099,299.654327 
	C167.704498,299.519623 167.435898,299.384888 167.167297,299.250183 
	C167.377228,299.565613 167.587158,299.881042 167.885452,300.427185 
M158.911575,317.848663 
	C159.451431,318.093872 159.991287,318.339081 160.531158,318.584290 
	C160.564713,318.295715 160.598267,318.007111 160.631821,317.718536 
	C160.065979,317.656616 159.500137,317.594727 158.911575,317.848663 
M314.106323,132.266891 
	C314.278168,132.112839 314.450043,131.958771 314.621887,131.804718 
	C314.424347,131.662491 314.226776,131.520264 314.029236,131.378021 
	C313.994568,131.624802 313.959869,131.871567 314.106323,132.266891 
M174.563263,305.952301 
	C174.415283,305.951782 174.267288,305.951294 174.119308,305.950775 
	C174.237427,305.988586 174.355530,306.026398 174.563263,305.952301 
M331.152588,140.448990 
	C331.355835,140.550186 331.555328,140.662384 331.768219,140.735550 
	C331.789459,140.742874 331.892273,140.513107 331.957214,140.393356 
	C331.723145,140.355728 331.489075,140.318100 331.152588,140.448990 
M153.571198,306.424011 
	C153.571198,306.424011 153.399811,306.534698 153.399811,306.534698 
	C153.399811,306.534698 153.599030,306.502838 153.571198,306.424011 
M220.215012,117.917252 
	C220.452972,118.180893 220.688461,118.447060 220.941589,118.695221 
	C220.948700,118.702202 221.144272,118.516975 221.251968,118.421364 
	C220.998001,118.139893 220.744034,117.858421 220.215012,117.917252 
M225.634933,118.285156 
	C225.487808,118.104538 225.340698,117.923927 225.193573,117.743309 
	C225.095505,117.843521 224.997452,117.943733 224.899384,118.043945 
	C225.071564,118.204208 225.243744,118.364479 225.634933,118.285156 
M167.114914,318.171295 
	C167.114914,318.171295 167.120529,318.127502 167.114914,318.171295 
M151.628387,313.072296 
	C151.628387,313.072296 151.458130,312.839203 151.458130,312.839203 
	C151.458130,312.839203 151.481262,313.135559 151.628387,313.072296 
M316.500916,136.939896 
	C316.500916,136.939896 316.559204,136.989532 316.500916,136.939896 
M152.539368,328.003387 
	C152.539368,328.003387 152.485992,328.019470 152.539368,328.003387 
M159.470306,326.510864 
	C159.470306,326.510864 159.512695,326.499481 159.470306,326.510864 
M157.505310,328.527313 
	C157.505310,328.527313 157.487289,328.476105 157.505310,328.527313 
M155.575195,329.502380 
	C155.575195,329.502380 155.478607,329.553192 155.575195,329.502380 
M171.502274,315.529907 
	C171.502274,315.529907 171.480667,315.474030 171.502274,315.529907 
M173.427826,302.508179 
	C173.427826,302.508179 173.523483,302.458344 173.427826,302.508179 
M334.471619,138.512024 
	C334.471619,138.512024 334.512909,138.501862 334.471619,138.512024 
M324.493378,116.469757 
	C324.493378,116.469757 324.510498,116.518456 324.493378,116.469757 
M326.498108,114.447258 
	C326.498108,114.447258 326.537689,114.529305 326.498108,114.447258 
M224.478363,113.694191 
	C224.478363,113.694191 224.615616,113.421104 224.615616,113.421104 
	C224.615616,113.421104 224.312546,113.474762 224.478363,113.694191 
z"/>
<path fill="#090909" opacity="1.000000" stroke="none" 
	d="
M158.922943,317.690735 
	C159.500137,317.594727 160.065979,317.656616 160.631821,317.718536 
	C160.598267,318.007111 160.564713,318.295715 160.531158,318.584290 
	C159.991287,318.339081 159.451431,318.093872 158.922943,317.690735 
z"/>
<path fill="#070707" opacity="1.000000" stroke="none" 
	d="
M314.015747,132.192627 
	C313.959869,131.871567 313.994568,131.624802 314.029236,131.378021 
	C314.226776,131.520264 314.424347,131.662491 314.621887,131.804718 
	C314.450043,131.958771 314.278168,132.112839 314.015747,132.192627 
z"/>
<path fill="#090909" opacity="1.000000" stroke="none" 
	d="
M174.518448,306.008240 
	C174.355530,306.026398 174.237427,305.988586 174.119308,305.950775 
	C174.267288,305.951294 174.415283,305.951782 174.518448,306.008240 
z"/>
<path fill="#070707" opacity="1.000000" stroke="none" 
	d="
M331.203796,140.364731 
	C331.489075,140.318100 331.723145,140.355728 331.957214,140.393356 
	C331.892273,140.513107 331.789459,140.742874 331.768219,140.735550 
	C331.555328,140.662384 331.355835,140.550186 331.203796,140.364731 
z"/>
<path fill="#090909" opacity="1.000000" stroke="none" 
	d="
M153.585114,306.463440 
	C153.599030,306.502838 153.399811,306.534698 153.399811,306.534698 
	C153.399811,306.534698 153.571198,306.424011 153.585114,306.463440 
z"/>
<path fill="#1D1D1D" opacity="1.000000" stroke="none" 
	d="
M220.352539,117.747101 
	C220.744034,117.858421 220.998001,118.139893 221.251968,118.421364 
	C221.144272,118.516975 220.948700,118.702202 220.941589,118.695221 
	C220.688461,118.447060 220.452972,118.180893 220.352539,117.747101 
z"/>
<path fill="#1D1D1D" opacity="1.000000" stroke="none" 
	d="
M225.525421,118.404953 
	C225.243744,118.364479 225.071564,118.204208 224.899384,118.043945 
	C224.997452,117.943733 225.095505,117.843521 225.193573,117.743309 
	C225.340698,117.923927 225.487808,118.104538 225.525421,118.404953 
z"/>
<path fill="#090909" opacity="1.000000" stroke="none" 
	d="
M167.117722,318.149414 
	C167.120529,318.127502 167.114914,318.171295 167.117722,318.149414 
z"/>
<path fill="#090909" opacity="1.000000" stroke="none" 
	d="
M167.797089,300.196472 
	C167.587158,299.881042 167.377228,299.565613 167.167297,299.250183 
	C167.435898,299.384888 167.704498,299.519623 167.964920,299.865479 
	C167.956741,300.076630 167.797089,300.196472 167.797089,300.196472 
z"/>
<path fill="#090909" opacity="1.000000" stroke="none" 
	d="
M175.000031,312.154022 
	C174.829742,312.082214 174.659470,312.010406 174.683258,311.986633 
	C174.877335,312.034637 175.000031,312.154022 175.000031,312.154022 
z"/>
<path fill="#090909" opacity="1.000000" stroke="none" 
	d="
M151.554825,313.103943 
	C151.481262,313.135559 151.458130,312.839203 151.458130,312.839203 
	C151.458130,312.839203 151.628387,313.072296 151.554825,313.103943 
z"/>
<path fill="#090909" opacity="1.000000" stroke="none" 
	d="
M168.038284,300.019104 
	C168.233414,300.074799 168.347000,300.188049 168.460587,300.301300 
	C168.268875,300.343262 168.077164,300.385223 167.841278,300.311829 
	C167.797089,300.196472 167.956741,300.076630 168.038284,300.019104 
z"/>
<path fill="#090909" opacity="1.000000" stroke="none" 
	d="
M160.866516,324.010040 
	C160.980499,324.043762 161.094467,324.077454 161.074631,324.091675 
	C160.940811,324.072144 160.866516,324.010040 160.866516,324.010040 
z"/>
<path fill="#070707" opacity="1.000000" stroke="none" 
	d="
M316.530060,136.964722 
	C316.559204,136.989532 316.500916,136.939896 316.530060,136.964722 
z"/>
<path fill="#090909" opacity="1.000000" stroke="none" 
	d="
M152.512680,328.011414 
	C152.485992,328.019470 152.539368,328.003387 152.512680,328.011414 
z"/>
<path fill="#090909" opacity="1.000000" stroke="none" 
	d="
M160.979156,324.101715 
	C161.017487,324.131287 160.802628,324.073364 160.834564,324.041687 
	C160.866516,324.010040 160.940811,324.072144 160.979156,324.101715 
z"/>
<path fill="#090909" opacity="1.000000" stroke="none" 
	d="
M159.491501,326.505188 
	C159.512695,326.499481 159.470306,326.510864 159.491501,326.505188 
z"/>
<path fill="#090909" opacity="1.000000" stroke="none" 
	d="
M157.496307,328.501709 
	C157.487289,328.476105 157.505310,328.527313 157.496307,328.501709 
z"/>
<path fill="#090909" opacity="1.000000" stroke="none" 
	d="
M155.526901,329.527771 
	C155.478607,329.553192 155.575195,329.502380 155.526901,329.527771 
z"/>
<path fill="#090909" opacity="1.000000" stroke="none" 
	d="
M171.491470,315.501953 
	C171.480667,315.474030 171.502274,315.529907 171.491470,315.501953 
z"/>
<path fill="#090909" opacity="1.000000" stroke="none" 
	d="
M174.807480,311.985168 
	C174.737625,311.935699 174.996429,311.727234 174.996429,311.727234 
	C174.996429,311.727234 175.122162,312.011871 175.061096,312.082947 
	C175.000031,312.154022 174.877335,312.034637 174.807480,311.985168 
z"/>
<path fill="#090909" opacity="1.000000" stroke="none" 
	d="
M173.475647,302.483276 
	C173.523483,302.458344 173.427826,302.508179 173.475647,302.483276 
z"/>
<path fill="#070707" opacity="1.000000" stroke="none" 
	d="
M334.492249,138.506943 
	C334.512909,138.501862 334.471619,138.512024 334.492249,138.506943 
z"/>
<path fill="#070707" opacity="1.000000" stroke="none" 
	d="
M324.501953,116.494110 
	C324.510498,116.518456 324.493378,116.469757 324.501953,116.494110 
z"/>
<path fill="#070707" opacity="1.000000" stroke="none" 
	d="
M326.517883,114.488281 
	C326.537689,114.529305 326.498108,114.447258 326.517883,114.488281 
z"/>
<path fill="#1D1D1D" opacity="1.000000" stroke="none" 
	d="
M221.359085,114.322914 
	C221.041077,114.207893 220.723083,114.092880 220.708282,113.982903 
	C221.011490,113.987938 221.359085,114.322914 221.359085,114.322914 
z"/>
<path fill="#1D1D1D" opacity="1.000000" stroke="none" 
	d="
M224.395447,113.584473 
	C224.312546,113.474762 224.615616,113.421104 224.615616,113.421104 
	C224.615616,113.421104 224.478363,113.694191 224.395447,113.584473 
z"/>
<path fill="#1D1D1D" opacity="1.000000" stroke="none" 
	d="
M220.839172,113.818932 
	C220.982574,113.766022 221.298294,113.882126 221.486542,114.160568 
	C221.359085,114.322914 221.011490,113.987938 220.839172,113.818932 
z"/>
</svg>